<svg width="268" height="268" viewBox="0 0 268 268" fill="none" xmlns="http://www.w3.org/2000/svg">
<path opacity="0.2" d="M225.997 58.002V154.002L158.687 221.312C157.201 222.799 155.436 223.979 153.494 224.784C151.551 225.588 149.47 226.002 147.367 226.002H41.9971V120.632C41.9967 118.529 42.4108 116.448 43.2155 114.505C44.0202 112.563 45.1999 110.798 46.6871 109.312L113.997 42.002H209.997C214.241 42.002 218.31 43.6877 221.311 46.6882C224.311 49.6888 225.997 53.7585 225.997 58.002Z" fill="#B08DFF"/>
<path d="M231.657 159.662L199.657 191.662C198.156 193.164 196.12 194.007 193.997 194.007C191.874 194.007 189.838 193.164 188.337 191.662C186.836 190.161 185.993 188.125 185.993 186.002C185.993 183.879 186.836 181.844 188.337 180.342L206.687 162.002H117.307L61.3071 218.002H89.9971C92.1188 218.002 94.1536 218.845 95.6539 220.346C97.1542 221.846 97.9971 223.881 97.9971 226.002C97.9971 228.124 97.1542 230.159 95.6539 231.659C94.1536 233.16 92.1188 234.002 89.9971 234.002H41.9971C39.8753 234.002 37.8405 233.16 36.3402 231.659C34.8399 230.159 33.9971 228.124 33.9971 226.002V178.002C33.9971 175.881 34.8399 173.846 36.3402 172.346C37.8405 170.845 39.8753 170.002 41.9971 170.002C44.1188 170.002 46.1536 170.845 47.6539 172.346C49.1542 173.846 49.9971 175.881 49.9971 178.002V206.692L105.997 150.692V61.3124L87.6571 79.6624C86.1559 81.1635 84.12 82.0068 81.9971 82.0068C79.8742 82.0068 77.8382 81.1635 76.3371 79.6624C74.8359 78.1613 73.9926 76.1253 73.9926 74.0024C73.9926 71.8795 74.8359 69.8435 76.3371 68.3424L108.337 36.3424C109.08 35.5986 109.962 35.0085 110.934 34.6059C111.905 34.2033 112.946 33.9961 113.997 33.9961C115.048 33.9961 116.089 34.2033 117.061 34.6059C118.032 35.0085 118.914 35.5986 119.657 36.3424L151.657 68.3424C153.158 69.8435 154.002 71.8795 154.002 74.0024C154.002 76.1253 153.158 78.1613 151.657 79.6624C150.156 81.1635 148.12 82.0068 145.997 82.0068C143.874 82.0068 141.838 81.1635 140.337 79.6624L121.997 61.3124V146.002H206.687L188.337 127.662C186.836 126.161 185.993 124.125 185.993 122.002C185.993 119.879 186.836 117.844 188.337 116.342C189.838 114.841 191.874 113.998 193.997 113.998C196.12 113.998 198.156 114.841 199.657 116.342L231.657 148.342C232.401 149.085 232.991 149.968 233.394 150.939C233.796 151.91 234.003 152.951 234.003 154.002C234.003 155.054 233.796 156.095 233.394 157.066C232.991 158.037 232.401 158.919 231.657 159.662Z" fill="#B08DFF"/>
</svg>
