<svg xmlns="http://www.w3.org/2000/svg" version="1.1" xmlns:xlink="http://www.w3.org/1999/xlink" width="128" height="128"><svg width="128" height="128" viewBox="0 0 128 128" fill="none" xmlns="http://www.w3.org/2000/svg">
<path opacity="0.2" d="M108.92 26.8926V73.7676L76.0542 106.634C75.3285 107.36 74.4669 107.936 73.5184 108.329C72.57 108.722 71.5534 108.924 70.5269 108.924H19.0767V57.4736C19.0765 56.447 19.2787 55.4305 19.6716 54.4821C20.0645 53.5336 20.6405 52.672 21.3667 51.9463L54.2329 19.0801H101.108C103.18 19.0801 105.167 19.9032 106.632 21.3683C108.097 22.8334 108.92 24.8206 108.92 26.8926Z" fill="#8C67E6"></path>
<path d="M111.684 76.5304L96.0591 92.1554C95.3261 92.8884 94.332 93.3002 93.2954 93.3002C92.2588 93.3002 91.2647 92.8884 90.5317 92.1554C89.7988 91.4224 89.387 90.4283 89.387 89.3917C89.387 88.3552 89.7988 87.361 90.5317 86.6281L99.4917 77.673H55.8491L28.5054 105.017H42.5142C43.5502 105.017 44.5437 105.428 45.2763 106.161C46.0089 106.893 46.4204 107.887 46.4204 108.923C46.4204 109.959 46.0089 110.953 45.2763 111.685C44.5437 112.418 43.5502 112.829 42.5142 112.829H19.0767C18.0407 112.829 17.0471 112.418 16.3145 111.685C15.582 110.953 15.1704 109.959 15.1704 108.923V85.4855C15.1704 84.4495 15.582 83.4559 16.3145 82.7234C17.0471 81.9908 18.0407 81.5792 19.0767 81.5792C20.1127 81.5792 21.1062 81.9908 21.8388 82.7234C22.5714 83.4559 22.9829 84.4495 22.9829 85.4855V99.4943L50.3267 72.1505V28.508L41.3716 37.4679C40.6386 38.2009 39.6445 38.6127 38.6079 38.6127C37.5713 38.6127 36.5772 38.2009 35.8442 37.4679C35.1113 36.7349 34.6995 35.7408 34.6995 34.7042C34.6995 33.6677 35.1113 32.6735 35.8442 31.9406L51.4692 16.3156C51.832 15.9524 52.2628 15.6643 52.737 15.4677C53.2113 15.2711 53.7196 15.1699 54.2329 15.1699C54.7463 15.1699 55.2546 15.2711 55.7288 15.4677C56.203 15.6643 56.6338 15.9524 56.9966 16.3156L72.6216 31.9406C73.3546 32.6735 73.7663 33.6677 73.7663 34.7042C73.7663 35.7408 73.3546 36.7349 72.6216 37.4679C71.8886 38.2009 70.8945 38.6127 69.8579 38.6127C68.8213 38.6127 67.8272 38.2009 67.0942 37.4679L58.1392 28.508V69.8605H99.4917L90.5317 60.9054C89.7988 60.1724 89.387 59.1783 89.387 58.1417C89.387 57.1052 89.7988 56.111 90.5317 55.3781C91.2647 54.6451 92.2588 54.2333 93.2954 54.2333C94.332 54.2333 95.3261 54.6451 96.0591 55.3781L111.684 71.0031C112.047 71.3659 112.335 71.7967 112.532 72.2709C112.729 72.7451 112.83 73.2534 112.83 73.7667C112.83 74.2801 112.729 74.7884 112.532 75.2626C112.335 75.7368 112.047 76.1676 111.684 76.5304Z" fill="#8C67E6"></path>
</svg><style>@media (prefers-color-scheme: light) { :root { filter: none; } }
@media (prefers-color-scheme: dark) { :root { filter: none; } }
</style></svg>