<svg width="375" height="375" viewBox="0 0 375 375" fill="none" xmlns="http://www.w3.org/2000/svg">
<path d="M187.2 354.4C94.7 354.4 20 279.7 20 187.2C20 94.7 94.7 20 187.2 20C279.7 20 354.4 94.7 354.4 187.2C354.4 279.7 279.7 354.4 187.2 354.4Z" fill="black"/>
<path d="M286.779 159.148H250.122V214.47H286.779C301.979 214.47 314.608 201.841 314.608 186.642C314.608 171.33 301.979 159.148 286.779 159.148Z" fill="#FFF100"/>
<path d="M70.5215 186.868C70.5215 229.561 105.279 264.319 147.972 264.319C190.665 264.319 225.422 229.561 225.422 186.868C225.422 144.176 190.665 109.418 147.972 109.418C105.279 109.418 70.5215 144.176 70.5215 186.868Z" fill="#FFF100"/>
</svg>
